<svg width="160" height="43" viewBox="0 0 160 43" fill="none" xmlns="http://www.w3.org/2000/svg">
<path d="M0 13.358C0 9.20863 0 7.13395 0.676627 5.49741C1.5788 3.31535 3.30923 1.58171 5.48726 0.677878C7.12078 0 9.19163 0 13.3333 0H146.667C150.808 0 152.879 0 154.513 0.677878C156.691 1.58171 158.421 3.31535 159.323 5.49741C160 7.13395 160 9.20863 160 13.358V29.642C160 33.7914 160 35.8661 159.323 37.5026C158.421 39.6847 156.691 41.4183 154.513 42.3221C152.879 43 150.808 43 146.667 43H13.3334C9.19164 43 7.12078 43 5.48726 42.3221C3.30923 41.4183 1.5788 39.6847 0.676627 37.5026C0 35.8661 0 33.7914 0 29.642V13.358Z" fill="black"/>
<path d="M56.0606 27.0607H48.1065C46.7787 27.0612 45.5048 26.5343 44.5641 25.5955C43.6234 24.6566 43.0925 23.3824 43.0879 22.0521L43.0943 14.0465C43.0982 12.7157 43.6287 11.4408 44.5695 10.5014C45.5103 9.56196 46.7846 9.03466 48.113 9.03516H56.0671C57.3954 9.03466 58.6697 9.56196 59.6105 10.5014C60.5513 11.4408 61.0818 12.7157 61.0857 14.0465L61.0793 22.0521C61.0747 23.3824 60.5438 24.6566 59.6031 25.5955C58.6624 26.5343 57.3885 27.0612 56.0606 27.0607ZM47.8668 13.902L47.8594 22.1892H56.3096L56.3169 13.902H47.8668Z" fill="white"/>
<path d="M106.942 27.0607H98.9874C97.6595 27.0612 96.3857 26.5343 95.4449 25.5955C94.5042 24.6566 93.9734 23.3824 93.9688 22.0521L93.9761 14.0465C93.98 12.7157 94.5105 11.4408 95.4513 10.5014C96.3921 9.56196 97.6664 9.03466 98.9947 9.03516H106.949C108.277 9.03466 109.551 9.56196 110.492 10.5014C111.433 11.4408 111.964 12.7157 111.967 14.0465L111.96 22.0521C111.956 23.3824 111.425 24.6566 110.484 25.5955C109.543 26.5343 108.269 27.0612 106.942 27.0607ZM98.7477 13.902L98.7412 22.1892H107.191L107.198 13.902H98.7477Z" fill="white"/>
<path d="M27.7052 18.0759C27.7052 23.7755 24.0092 27.6238 19.1173 27.6238C16.4712 27.5879 14.4064 26.353 13.2831 24.6838H13.0994V33.8083H8.24609V9.00007H13.1012V11.3235H13.2849C14.4082 9.69021 16.5097 8.45531 19.0824 8.45531C24.1902 8.41943 27.7052 12.4821 27.7052 18.0759ZM22.7766 18.04C22.7766 15.2077 20.7835 13.1023 17.9215 13.1023C15.0944 13.1023 13.1012 15.2445 13.1012 18.04C13.1012 20.726 15.0218 22.9768 17.9215 22.9768C20.7835 22.9768 22.7766 20.8714 22.7766 18.04Z" fill="white"/>
<path d="M41.9109 9V13.9009H38.6493C36.2943 13.9009 34.6272 15.5711 34.6272 18.0758V27.0789H29.7354V9H34.337V11.8314H34.5547C35.2068 10.0527 36.8013 9 38.9028 9H41.9109Z" fill="white"/>
<path d="M91.4349 16.1517V27.079H86.543V16.9146C86.543 14.338 85.1295 13.2476 83.3908 13.2476C81.7237 13.2476 79.9115 14.4439 79.9115 17.4584V27.079H75.0197V16.9504C75.0197 14.3739 73.6419 13.2835 71.9032 13.2835C69.8375 13.3203 68.4249 15.0263 68.4249 17.6765V27.079H63.5303V9.00002H68.2054V11.2858H68.3505C69.4738 9.57882 71.2493 8.49023 73.4941 8.49023C75.8132 8.49023 77.6273 9.57882 78.6036 11.4302H78.7487C80.0888 9.57882 82.0819 8.49023 84.583 8.49023C88.2441 8.49207 91.4349 10.9241 91.4349 16.1517Z" fill="white"/>
<path d="M127.709 9H132.709L124.994 27.0789H120.098L112.383 9H117.637L122.781 21.198L127.709 9Z" fill="white"/>
<path d="M146.719 8.99926H151.575V27.0782H146.719V24.6857H146.535C145.412 26.3549 143.346 27.5898 140.701 27.6257C135.809 27.6257 132.113 23.7775 132.113 18.0778C132.113 12.4877 135.627 8.42138 140.737 8.45727C143.346 8.45727 145.412 9.69216 146.535 11.3255H146.719V8.99926ZM146.719 18.0392C146.719 15.2437 144.726 13.1015 141.9 13.1015C139.037 13.1015 137.044 15.2068 137.044 18.0392C137.044 20.8715 139.037 22.976 141.9 22.976C144.799 22.976 146.719 20.7252 146.719 18.0392Z" fill="white"/>
</svg>
